<?xml version="1.0" standalone="no"?>
<!DOCTYPE svg PUBLIC "-//W3C//DTD SVG 20010904//EN"
 "http://www.w3.org/TR/2001/REC-SVG-20010904/DTD/svg10.dtd">
<svg version="1.0" xmlns="http://www.w3.org/2000/svg"
 width="72.000000pt" height="72.000000pt" viewBox="0 0 72.000000 72.000000"
 preserveAspectRatio="xMidYMid meet">
<metadata>
Created by potrace 1.14, written by Peter Selinger 2001-2017
</metadata>
<g transform="translate(0.000000,72.000000) scale(0.100000,-0.100000)"
fill="#000000" stroke="none">
<path d="M40 702 c0 -10 50 -47 64 -47 11 0 46 37 46 49 0 3 -25 6 -55 6 -30
0 -55 -3 -55 -8z"/>
<path d="M182 668 c-47 -46 -51 -59 -23 -87 19 -19 20 -18 68 28 26 26 59 60
72 74 l24 27 -49 0 c-45 0 -54 -4 -92 -42z"/>
<path d="M386 701 c-3 -5 2 -19 13 -32 l18 -22 32 22 c17 12 31 27 31 32 0 12
-87 12 -94 0z"/>
<path d="M508 667 c-45 -45 -48 -59 -17 -89 17 -17 19 -17 28 0 6 9 11 14 11
10 0 -4 21 16 48 45 26 28 54 57 62 64 12 10 6 12 -36 13 -47 0 -55 -4 -96
-43z"/>
<path d="M0 624 c0 -39 6 -53 35 -85 19 -22 35 -36 35 -32 0 5 5 0 11 -10 10
-18 12 -18 35 4 13 12 24 26 24 31 0 10 -125 138 -134 138 -4 0 -6 -21 -6 -46z"/>
<path d="M652 647 c-29 -31 -28 -49 7 -75 l29 -21 3 32 c5 42 0 87 -10 87 -4
0 -17 -10 -29 -23z"/>
<path d="M340 652 c-26 -9 -40 -30 -33 -49 6 -19 62 -73 76 -73 4 0 7 -7 7
-15 0 -8 7 -15 16 -15 8 0 12 -5 9 -10 -4 -6 4 -5 19 1 14 7 23 16 20 20 -3 5
0 9 6 9 18 0 9 14 -51 77 -32 35 -61 57 -69 55z"/>
<path d="M566 555 l-29 -25 71 -70 c39 -38 74 -65 77 -60 3 5 6 26 7 46 1 29
-4 41 -25 56 -15 11 -25 24 -21 29 3 5 0 9 -7 9 -6 0 -19 9 -28 19 -17 20 -18
19 -45 -4z"/>
<path d="M232 552 l-21 -19 58 -61 c32 -34 65 -62 73 -62 8 0 23 9 33 20 17
19 17 21 -24 60 -22 22 -38 40 -35 40 4 0 -5 9 -19 20 -31 25 -38 25 -65 2z"/>
<path d="M0 463 c0 -44 3 -53 18 -53 9 0 23 9 30 20 10 17 8 24 -18 52 l-29
33 -1 -52z"/>
<path d="M120 441 c-33 -33 -60 -67 -60 -76 0 -19 20 -41 36 -40 15 0 140 125
125 125 -6 0 -11 5 -11 11 0 6 -7 17 -15 25 -13 13 -22 8 -75 -45z"/>
<path d="M442 435 c-65 -64 -70 -84 -31 -106 15 -8 28 0 74 45 63 62 72 84 41
107 -20 16 -23 14 -84 -46z"/>
<path d="M194 351 c-50 -49 -58 -62 -51 -79 18 -40 38 -35 99 25 32 31 58 63
58 71 0 15 -24 42 -38 42 -5 0 -36 -26 -68 -59z"/>
<path d="M531 361 c-28 -27 -51 -54 -51 -61 0 -6 -5 -8 -10 -5 -17 11 -6 -19
14 -37 10 -10 21 -18 23 -18 10 0 123 118 123 127 0 10 -32 43 -42 43 -4 0
-29 -22 -57 -49z"/>
<path d="M0 294 c0 -42 5 -51 44 -90 24 -24 48 -44 53 -44 11 0 43 33 43 44 0
8 -126 136 -134 136 -3 0 -6 -21 -6 -46z"/>
<path d="M327 323 c-9 -2 -15 -9 -12 -14 4 -5 1 -9 -5 -9 -23 0 -3 -35 49 -84
59 -57 68 -60 94 -34 18 18 24 43 7 33 -5 -3 -10 -1 -10 4 0 9 -99 114 -104
110 0 -1 -9 -3 -19 -6z"/>
<path d="M652 314 c-23 -16 -30 -44 -10 -44 6 0 8 -3 5 -7 -4 -3 2 -13 14 -21
25 -17 27 -15 31 31 3 47 -11 62 -40 41z"/>
<path d="M242 234 c-12 -8 -22 -21 -22 -27 0 -23 104 -123 129 -124 13 -1 21
1 17 4 -3 3 2 12 12 19 15 11 10 19 -49 78 -62 63 -66 65 -87 50z"/>
<path d="M566 226 l-27 -25 70 -70 c38 -39 72 -71 75 -71 3 0 6 21 6 48 -1 43
-17 82 -34 82 -4 0 -20 14 -35 31 l-28 31 -27 -26z"/>
<path d="M0 121 l0 -63 29 24 c38 29 38 38 1 73 l-30 29 0 -63z"/>
<path d="M102 95 c-39 -40 -69 -75 -65 -79 11 -10 103 -7 103 5 0 5 20 30 45
55 42 41 58 63 35 49 -5 -3 -10 0 -10 7 0 7 -8 18 -18 24 -16 10 -28 1 -90
-61z"/>
<path d="M431 96 c-39 -40 -68 -76 -64 -79 12 -13 103 -8 103 6 0 6 20 31 45
55 24 23 40 42 35 42 -6 0 -10 6 -10 13 0 7 -8 17 -19 24 -16 10 -27 2 -90
-61z"/>
<path d="M226 59 c-36 -36 -29 -49 25 -49 43 0 49 3 49 21 0 23 -22 49 -42 48
-7 0 -22 -9 -32 -20z"/>
<path d="M552 55 c-12 -14 -22 -30 -22 -35 0 -6 27 -10 60 -10 33 0 60 4 60 9
0 13 -51 61 -65 61 -6 0 -21 -11 -33 -25z"/>
</g>
</svg>
